<svg width="37" height="36" viewBox="0 0 37 36" fill="none" xmlns="http://www.w3.org/2000/svg">
<g clip-path="url(#clip0_213_1708)">
<path d="M23.7879 17.1C23.7046 18.0495 22.8906 18.7905 21.9009 18.7905C20.8556 18.7905 20.0062 17.9655 20.0062 16.947C20.0062 15.9285 20.8541 15.1035 21.8993 15.1035C22.9523 15.147 23.7879 15.9885 23.7879 17.019C23.7879 17.0475 23.7879 17.0745 23.7863 17.103V17.0985L23.7879 17.1ZM15.1484 15.105C14.0877 15.1965 13.2629 16.056 13.2629 17.103C13.2629 18.15 14.0877 19.0095 15.1407 19.101H15.1484C16.2013 19.0575 17.0369 18.216 17.0369 17.1855C17.0369 17.157 17.0369 17.13 17.0354 17.1015V17.106C17.0369 17.076 17.0385 17.0415 17.0385 17.0055C17.0385 15.978 16.2044 15.141 15.1592 15.102H15.1561L15.1484 15.105ZM34.6875 3.708V36C30.027 31.992 31.5162 33.3195 26.1035 28.422L27.084 31.752H6.10341C4.00829 31.746 2.31091 30.093 2.31091 28.053C2.31091 28.05 2.31091 28.047 2.31091 28.044V3.708C2.31091 3.705 2.31091 3.702 2.31091 3.699C2.31091 1.659 4.00829 0.006 6.10187 0H30.8934C32.9885 0.006 34.6859 1.659 34.6859 3.699V3.708H34.6875ZM29.415 20.772C29.3502 16.9335 28.3728 13.332 26.6862 10.143L26.751 10.278C25.3265 9.1815 23.532 8.4855 21.574 8.3895L21.5525 8.388L21.2935 8.676C23.0664 9.144 24.608 9.9315 25.9215 10.9785L25.9 10.962C23.7432 9.8085 21.1732 9.129 18.4398 9.129C16.1381 9.129 13.952 9.6105 11.9818 10.476L12.0805 10.437C11.396 10.743 10.989 10.962 10.989 10.962C12.3518 9.879 13.9829 9.063 15.7681 8.622L15.8545 8.604L15.6695 8.388C13.69 8.4855 11.8955 9.1815 10.4525 10.2915L10.471 10.278C8.84912 13.332 7.8717 16.9335 7.80695 20.751V20.772C9.03875 22.4385 11.026 23.511 13.2691 23.511C13.3323 23.511 13.3955 23.5095 13.4587 23.508H13.4495C13.4495 23.508 14.134 22.698 14.689 22.014C13.3539 21.6795 12.2346 20.9235 11.4622 19.905L11.4515 19.89C11.7228 20.076 12.173 20.316 12.2069 20.34C14.0707 21.348 16.2954 21.9405 18.6634 21.9405C20.4995 21.9405 22.2493 21.5835 23.8434 20.9385L23.754 20.97C24.568 20.667 25.2679 20.31 25.9185 19.8855L25.8799 19.9095C25.069 20.964 23.9112 21.7275 22.5746 22.044L22.5345 22.0515C23.0895 22.7355 23.7555 23.5095 23.7555 23.5095C23.8064 23.511 23.8665 23.511 23.9266 23.511C26.179 23.511 28.1739 22.44 29.4026 20.7915L29.4165 20.772H29.415Z" fill="white"/>
</g>
<defs>
<clipPath id="clip0_213_1708">
<rect width="37" height="36" fill="white"/>
</clipPath>
</defs>
</svg>
