<svg width="33" height="33" viewBox="0 0 33 33" fill="none" xmlns="http://www.w3.org/2000/svg">
<g clip-path="url(#clip0_213_1705)">
<path d="M32.252 6.10904C31.7335 6.33898 31.2005 6.53304 30.6559 6.69059C31.3007 5.96139 31.7923 5.10339 32.0924 4.16449C32.1597 3.95403 32.0899 3.72367 31.9169 3.58603C31.7442 3.44828 31.5041 3.43178 31.3139 3.54452C30.1573 4.23049 28.9095 4.72347 27.6011 5.01174C26.2831 3.72389 24.493 2.99097 22.6425 2.99097C18.7362 2.99097 15.5582 6.16887 15.5582 10.075C15.5582 10.3826 15.5777 10.6886 15.6162 10.9903C10.769 10.5647 6.26254 8.18219 3.16799 4.38623C3.05771 4.25093 2.88781 4.17801 2.71387 4.19195C2.53982 4.20558 2.38344 4.30373 2.29551 4.45457C1.66788 5.53154 1.33607 6.76329 1.33607 8.01655C1.33607 9.7235 1.9455 11.3431 3.02205 12.6086C2.69471 12.4952 2.37706 12.3535 2.07388 12.1852C1.91112 12.0946 1.71248 12.096 1.55078 12.1887C1.38897 12.2814 1.28752 12.452 1.28327 12.6384C1.28252 12.6698 1.28252 12.7012 1.28252 12.733C1.28252 15.2809 2.65383 17.5748 4.75039 18.8251C4.57028 18.8071 4.39027 18.781 4.21143 18.7469C4.02706 18.7116 3.83747 18.7763 3.71313 18.9169C3.58858 19.0574 3.54738 19.2533 3.60476 19.4321C4.38079 21.8549 6.37878 23.637 8.79417 24.1804C6.79086 25.4351 4.49991 26.0924 2.09496 26.0924C1.59315 26.0924 1.08846 26.0629 0.594524 26.0044C0.349153 25.9753 0.114533 26.1201 0.0309688 26.3535C-0.0525958 26.5869 0.035972 26.8472 0.244724 26.981C3.33427 28.962 6.90668 30.009 10.5755 30.009C17.7881 30.009 22.3 26.6079 24.8149 23.7547C27.951 20.197 29.7496 15.4879 29.7496 10.835C29.7496 10.6406 29.7466 10.4443 29.7407 10.2486C30.9779 9.31643 32.0432 8.18825 32.91 6.89157C33.0417 6.69463 33.0275 6.43436 32.8749 6.25307C32.7226 6.07168 32.4687 6.01302 32.252 6.10904Z" fill="white"/>
</g>
<defs>
<clipPath id="clip0_213_1705">
<rect width="33" height="33" fill="white"/>
</clipPath>
</defs>
</svg>
